<svg height="512pt" viewBox="0 0 512 512" width="512pt" xmlns="http://www.w3.org/2000/svg"><path d="m512 143.527344v-56.226563c-.003906-30.417969-24.75-55.164062-55.167969-55.167969h-41.234375v-17.132812c0-8.285156-6.714844-15-15-15-8.28125 0-15 6.714844-15 15v17.132812h-66.398437v-17.132812c0-8.285156-6.714844-15-15-15-8.285157 0-15 6.714844-15 15v17.132812h-66.402344v-17.132812c0-8.285156-6.714844-15-15-15-8.28125 0-15 6.714844-15 15v17.132812h-66.398437v-17.132812c0-8.285156-6.714844-15-15-15-8.285157 0-15 6.714844-15 15v17.132812h-41.230469c-14.695313 0-28.535157 5.75-38.976563 16.191407-10.445312 10.441406-16.191406 24.285156-16.191406 38.976562v369.53125c0 30.421875 24.746094 55.167969 55.167969 55.167969h401.664062c30.417969 0 55.164063-24.746094 55.164063-55.167969l.003906-313.292969c0-.003906 0-.003906 0-.007812zm-474.597656-73.988282c4.777344-4.773437 11.085937-7.40625 17.765625-7.40625h41.230469v1.070313c0 8.28125 6.714843 15 15 15 8.285156 0 15-6.71875 15-15v-1.070313h66.398437v1.070313c0 8.28125 6.714844 15 15 15s15-6.71875 15-15v-1.070313h66.402344v1.070313c0 8.28125 6.714843 15 15 15 8.285156 0 15-6.71875 15-15v-1.070313h66.398437v1.066407c0 8.285156 6.714844 15 15 15s15-6.714844 15-15v-1.066407h41.230469c13.878906.003907 25.171875 11.292969 25.171875 25.167969v41.230469l-452 .003906v-41.234375c0-6.679687 2.628906-12.988281 7.402344-17.761719zm419.429687 412.460938h-401.664062c-13.878907 0-25.167969-11.289062-25.167969-25.167969v-298.296875l452-.003906-.003906 298.300781c0 13.878907-11.289063 25.167969-25.164063 25.167969zm0 0"/><path d="m187.835938 299.234375c12.585937 0 24.421874-4.902344 33.320312-13.804687 18.378906-18.378907 18.382812-48.28125.003906-66.65625-8.902344-8.902344-20.738281-13.804688-33.324218-13.804688-12.589844 0-24.425782 4.902344-33.328126 13.804688-8.902343 8.902343-13.808593 20.738281-13.808593 33.328124 0 12.589844 4.902343 24.425782 13.808593 33.328126 8.902344 8.902343 20.738282 13.804687 33.328126 13.804687zm-12.117188-59.25c3.238281-3.234375 7.539062-5.015625 12.117188-5.015625 4.574218 0 8.878906 1.78125 12.113281 5.015625 6.679687 6.679687 6.675781 17.550781-.003907 24.230469-3.234374 3.234375-7.539062 5.019531-12.109374 5.019531-4.578126 0-8.878907-1.78125-12.117188-5.019531-3.234375-3.238282-5.019531-7.539063-5.019531-12.113282 0-4.574218 1.78125-8.878906 5.019531-12.117187zm0 0"/><path d="m324.164062 341.300781c-12.589843 0-24.425781 4.898438-33.328124 13.804688-8.902344 8.902343-13.808594 20.738281-13.804688 33.328125 0 12.589844 4.902344 24.425781 13.800781 33.324218 8.902344 8.902344 20.738281 13.808594 33.332031 13.808594 12.589844 0 24.425782-4.90625 33.324219-13.808594 8.90625-8.898437 13.808594-20.734374 13.808594-33.324218s-4.902344-24.425782-13.808594-33.332032c-8.898437-8.898437-20.734375-13.800781-33.324219-13.800781zm12.113282 59.246094c-3.238282 3.234375-7.539063 5.019531-12.113282 5.019531-4.578124 0-8.878906-1.785156-12.117187-5.023437-3.234375-3.234375-5.015625-7.535157-5.015625-12.109375 0-4.578125 1.78125-8.882813 5.015625-12.113282 3.234375-3.234374 7.539063-5.019531 12.117187-5.019531 4.574219 0 8.878907 1.78125 12.113282 5.015625 3.234375 3.238282 5.019531 7.539063 5.019531 12.117188 0 4.574218-1.78125 8.875-5.019531 12.113281zm0 0"/><path d="m359.933594 263.464844c0-12.589844-4.902344-24.425782-13.800782-33.328125-8.902343-8.902344-20.742187-13.808594-33.332031-13.808594-12.59375 0-24.429687 4.90625-33.328125 13.808594l-113.609375 113.605469c-8.902343 8.902343-13.804687 20.738281-13.804687 33.328124 0 12.589844 4.902344 24.425782 13.804687 33.328126 8.902344 8.902343 20.738281 13.804687 33.332031 13.804687h.003907c12.585937 0 24.421875-4.898437 33.316406-13.800781l113.613281-113.613282c8.902344-8.898437 13.804688-20.734374 13.804688-33.324218zm-35.019532 12.113281-113.609374 113.613281c-3.234376 3.234375-7.53125 5.011719-12.105469 5.011719h-.003907c-4.578124 0-8.882812-1.78125-12.117187-5.015625-3.234375-3.238281-5.019531-7.539062-5.019531-12.117188 0-4.578124 1.78125-8.878906 5.019531-12.117187l113.609375-113.605469c3.234375-3.234375 7.535156-5.019531 12.113281-5.019531s8.878907 1.785156 12.117188 5.023437c3.234375 3.234376 5.015625 7.535157 5.015625 12.113282 0 4.574218-1.78125 8.875-5.019532 12.113281zm0 0"/></svg>